<svg width="144" height="144" viewBox="0 0 144 144" fill="none" xmlns="http://www.w3.org/2000/svg">
<path d="M71.8945 143.59C111.361 143.59 143.355 111.596 143.355 72.1299C143.355 32.6636 111.361 0.669922 71.8945 0.669922C32.4283 0.669922 0.43457 32.6636 0.43457 72.1299C0.43457 111.596 32.4283 143.59 71.8945 143.59Z" fill="white"/>
<path d="M49.2245 102.891L54.4946 112.96L54.1445 113.69H54.0345L49.5446 105.15C48.8746 103.87 48.1545 103.151 47.3845 102.951V102.771L49.2245 102.891ZM52.3746 105.71L54.8646 110.44L57.2045 105.53C57.4697 105.059 57.6363 104.538 57.6945 104C57.7123 103.761 57.6432 103.523 57.5 103.33C57.3568 103.137 57.149 103.003 56.9146 102.951V102.771H57.4745C57.9945 102.821 58.3946 102.84 58.6846 102.84C58.9746 102.84 59.4246 102.841 60.1846 102.721V102.9C59.7735 103.067 59.407 103.327 59.1146 103.661C58.669 104.245 58.2994 104.883 58.0145 105.561L54.8646 112.121L50.0345 102.84C50.6445 102.84 51.3645 102.841 52.2145 102.721V102.9C52.0442 102.929 51.8904 103.02 51.7817 103.154C51.6731 103.289 51.6172 103.458 51.6246 103.63C51.727 104.368 51.9825 105.077 52.3746 105.71Z" fill="#1D65AE" stroke="#066EB5" stroke-width="0.15"/>
<path d="M69.1946 111L68.2946 109.13H64.5146L63.5146 111V111.13C63.4581 111.224 63.4081 111.32 63.3646 111.42C63.2282 111.687 63.1563 111.981 63.1546 112.28C63.1551 112.529 63.2376 112.771 63.3895 112.968C63.5414 113.165 63.7541 113.307 63.9946 113.371V113.55L63.4046 113.5C63.0531 113.455 62.699 113.432 62.3446 113.431C61.9869 113.433 61.6296 113.456 61.2746 113.5L60.7046 113.55V113.371C61.5941 112.821 62.2925 112.011 62.7046 111.05L66.0346 104.57C65.8153 104.09 65.4697 103.679 65.0346 103.38C64.5656 103.088 64.0271 102.926 63.4746 102.911V102.73H63.8246C64.1346 102.73 64.5746 102.731 65.1146 102.791L66.2446 102.851L71.3046 113.431C70.6546 113.431 69.8746 113.48 68.9746 113.55V113.371C69.1851 113.36 69.3829 113.267 69.5252 113.112C69.6675 112.956 69.7428 112.751 69.7346 112.541C69.6591 111.996 69.4755 111.473 69.1946 111ZM64.9046 108.38H67.9046L66.4546 105.331L64.9046 108.38ZM72.0746 113.431L67.0346 102.891H68.0346C68.1746 103.241 68.3546 103.68 68.5946 104.21C68.8346 104.74 69.0146 105.11 69.0546 105.21C69.0882 105.279 69.1182 105.349 69.1446 105.42L71.4946 110.311C72.3246 112.001 73.1946 113.03 74.1246 113.4V113.581C73.1646 113.511 72.4946 113.471 72.0346 113.471L72.0746 113.431Z" fill="#1D65AE" stroke="#066EB5" stroke-width="0.15"/>
<path d="M76.5446 102.89L88.0945 112.76V113.59H87.8945L78.8046 105.85V110.52C78.7461 111.247 78.8842 111.975 79.2045 112.63C79.3461 112.836 79.5281 113.012 79.7396 113.146C79.951 113.28 80.1874 113.37 80.4346 113.41V113.59C79.4346 113.51 78.7346 113.47 78.3746 113.47C78.0146 113.47 77.3745 113.47 76.5345 113.59V113.41C76.7783 113.369 77.0099 113.274 77.2123 113.132C77.4147 112.99 77.5829 112.805 77.7045 112.59C77.9601 111.9 78.0657 111.164 78.0145 110.43V105.19L77.2946 104.58C76.5553 103.885 75.6942 103.333 74.7545 102.95V102.77L76.5446 102.89ZM88.0945 111.78L77.6746 102.89H78.8646L87.2946 110.08V105.91C87.3079 105.373 87.2609 104.836 87.1545 104.31C87.068 103.959 86.8675 103.646 86.5845 103.42C86.2645 103.171 85.8856 103.009 85.4846 102.95V102.77H85.8345C86.7045 102.83 87.3046 102.86 87.6146 102.86C87.9246 102.86 88.6146 102.86 89.6746 102.74V102.92C89.3314 102.964 89.0119 103.118 88.7645 103.36C88.5077 103.58 88.3231 103.873 88.2346 104.2C88.1293 104.669 88.0823 105.149 88.0945 105.63V111.78Z" fill="#1D65AE" stroke="#066EB5" stroke-width="0.15"/>
<path d="M92.9746 102.89V110.68C93.0007 111.802 92.8762 112.921 92.6046 114.01C92.3396 114.89 91.8214 115.672 91.1146 116.26C90.373 116.909 89.4531 117.321 88.4746 117.44V117.27C89.2902 116.896 90.0294 116.374 90.6546 115.73C91.1899 115.191 91.5907 114.533 91.8246 113.81C92.0718 112.935 92.1864 112.029 92.1646 111.12V105.12C92.2002 104.598 92.1039 104.075 91.8846 103.6C91.768 103.434 91.6196 103.293 91.4479 103.185C91.2762 103.076 91.0847 103.004 90.8846 102.97V102.76C91.8112 102.84 92.5079 102.883 92.9746 102.89ZM95.8846 102.77V102.95C95.6743 102.97 95.4706 103.034 95.2864 103.137C95.1021 103.241 94.9415 103.381 94.8146 103.55C94.6003 103.995 94.5038 104.487 94.5346 104.98V110.57C94.5104 111.22 94.5607 111.871 94.6846 112.51C94.7545 112.881 94.9239 113.227 95.1746 113.51C94.8048 113.49 94.4354 113.555 94.0946 113.7C93.705 113.931 93.3651 114.237 93.0946 114.6C93.3256 114.175 93.4876 113.716 93.5746 113.24C93.6826 112.442 93.7261 111.636 93.7046 110.83V102.93C94.2546 102.88 94.9746 102.84 95.8846 102.77Z" fill="#1D65AE" stroke="#066EB5" stroke-width="0.15"/>
<path d="M109.825 34.8496C109.82 33.0892 109.42 31.3521 108.655 29.7666C107.89 28.1811 106.779 26.7875 105.404 25.6883C104.03 24.589 102.425 23.812 100.71 23.4148C98.9954 23.0176 97.2132 23.0102 95.4949 23.3931C93.7766 23.7759 92.1661 24.5392 90.782 25.627C89.3979 26.7147 88.2754 28.0992 87.4972 29.6782C86.7189 31.2573 86.3049 32.9907 86.2854 34.751C86.2659 36.5113 86.6415 38.2537 87.3846 39.8496C87.9246 42.9496 86.3847 48.4796 83.1247 54.0996C80.1247 59.2996 76.4746 63.2097 73.6046 64.6197C70.4823 64.0878 67.2719 64.524 64.4046 65.8697C61.438 65.234 58.737 63.7054 56.6646 61.4895C54.6504 59.5741 53.1804 57.1586 52.4046 54.4895C52.5166 53.9163 52.5735 53.3336 52.5746 52.7495C52.5707 52.2096 52.5205 51.6708 52.4246 51.1394C52.1295 49.4536 51.3784 47.8809 50.2526 46.5918C49.1268 45.3027 47.6694 44.3463 46.0387 43.8269C44.4079 43.3075 42.666 43.2447 41.002 43.6453C39.3381 44.0458 37.8156 44.8945 36.5999 46.0991C35.3841 47.3038 34.5216 48.8183 34.1057 50.4785C33.6899 52.1387 33.7367 53.8812 34.2411 55.5166C34.7455 57.1521 35.6883 58.6181 36.967 59.7556C38.2457 60.8932 39.8116 61.6589 41.4946 61.9695L41.5546 62.0196H41.6746C42.1804 62.1034 42.692 62.1467 43.2046 62.1494C43.7374 62.1434 44.269 62.0967 44.7946 62.0095C47.5127 62.7576 49.9747 64.2341 51.9146 66.2796C54.1777 68.3764 55.721 71.134 56.3246 74.1595C55.3769 76.3519 54.9295 78.7278 55.0149 81.1148C55.1003 83.5017 55.7164 85.8397 56.8184 87.9588C57.9204 90.0778 59.4806 91.9249 61.3857 93.3655C63.2908 94.8062 65.4929 95.8042 67.832 96.2874C70.1711 96.7705 72.5884 96.7267 74.9084 96.1587C77.2284 95.5907 79.3927 94.513 81.244 93.0039C83.0954 91.4949 84.5873 89.5924 85.6115 87.4346C86.6356 85.2768 87.1662 82.918 87.1646 80.5296C87.1654 77.4546 86.2801 74.4446 84.6146 71.8596C83.9746 68.7896 85.5346 63.1695 88.8346 57.4495C92.0246 51.9095 95.9646 47.8395 98.9046 46.6795C101.888 46.4659 104.678 45.1238 106.706 42.9261C108.735 40.7283 109.85 37.8404 109.825 34.8496Z" fill="#1D65AE"/>
</svg>
