<svg xmlns="http://www.w3.org/2000/svg" viewBox="0 0 194.64 194.64"><defs><style>.cls-1{fill:#fff;}.cls-2{font-size:27.97px;stroke:#066eb5;stroke-width:0.2px;font-family:ColonnaMT, Colonna MT;}.cls-2,.cls-3{fill:#1d65ae;}</style></defs><title>Asset 3</title><g id="Layer_2" data-name="Layer 2"><g id="Layer_1-2" data-name="Layer 1"><circle class="cls-1" cx="97.32" cy="97.32" r="97.32"/><text class="cls-2" transform="translate(63.58 153.61)">VANJ</text><path class="cls-3" d="M149,46.55a16,16,0,1,0-30.57,6.75c.74,4.22-1.38,11.75-5.8,19.4-4.08,7.07-9.06,12.4-13,14.33a21.42,21.42,0,0,0-3.42-.3,21.79,21.79,0,0,0-9.1,2c-3.25-.49-7.15-2.57-10.55-6a21.38,21.38,0,0,1-5.79-9.56,12.21,12.21,0,0,0,0-4.56h0A12.76,12.76,0,1,0,55.92,83.37l.08.08.17,0a11.62,11.62,0,0,0,4.24,0,21.09,21.09,0,0,1,9.7,5.82c3.47,3.46,5.57,7.45,6,10.73a21.9,21.9,0,1,0,38.51-3.14c-.85-4.17,1.26-11.83,5.76-19.62,4.34-7.54,9.71-13.09,13.71-14.66A16,16,0,0,0,149,46.55Z"/></g></g></svg>