<svg width="200" height="147" viewBox="0 0 200 147" fill="none" xmlns="http://www.w3.org/2000/svg">
<path d="M133.333 83.3327C133.333 82.3605 133.021 81.5618 132.396 80.9368C131.771 80.3118 130.972 79.9993 130 79.9993H106.667V43.3327C106.667 42.4299 106.337 41.6486 105.677 40.9889C105.017 40.3292 104.236 39.9993 103.333 39.9993H83.3333C82.4306 39.9993 81.6493 40.3292 80.9896 40.9889C80.3299 41.6486 80 42.4299 80 43.3327V79.9993H56.6667C55.7639 79.9993 54.9826 80.3292 54.3229 80.9889C53.6632 81.6487 53.3333 82.4299 53.3333 83.3327C53.3333 84.3049 53.6458 85.1035 54.2708 85.7285L90.9375 122.395C91.5625 123.02 92.3611 123.333 93.3333 123.333C94.3056 123.333 95.1042 123.02 95.7292 122.395L132.292 85.8327C132.986 84.9993 133.333 84.166 133.333 83.3327ZM200 106.666C200 117.708 196.094 127.135 188.281 134.947C180.469 142.76 171.042 146.666 160 146.666H46.6667C33.8194 146.666 22.8299 142.1 13.6979 132.968C4.56597 123.836 0 112.847 0 99.9993C0 90.9716 2.43056 82.6382 7.29167 74.9993C12.1528 67.3605 18.6806 61.6313 26.875 57.8118C26.7361 55.7285 26.6667 54.2355 26.6667 53.3327C26.6667 38.6105 31.875 26.041 42.2917 15.6243C52.7083 5.20768 65.2778 -0.000658035 80 -0.000658035C90.8333 -0.000658035 100.747 3.02018 109.74 9.06184C118.733 15.1035 125.278 23.1243 129.375 33.1243C134.306 28.8188 140.069 26.666 146.667 26.666C154.028 26.666 160.312 29.2702 165.521 34.4785C170.729 39.6868 173.333 45.9716 173.333 53.3327C173.333 58.6105 171.91 63.4021 169.062 67.7077C178.09 69.8605 185.503 74.5653 191.302 81.8223C197.101 89.0792 200 97.3605 200 106.666Z" fill="white"/>
</svg>
