<svg width="82" height="59" viewBox="0 0 82 59" fill="none" xmlns="http://www.w3.org/2000/svg">
<path d="M81.5861 29.5589C81.5861 37.0819 81.585 44.6057 81.588 52.1287C81.589 52.8067 81.52 53.4736 81.365 54.1326C80.857 56.2866 78.952 58.1867 76.532 58.5887C76.345 58.6207 76.154 58.6286 75.965 58.6306C75.017 58.6356 74.069 58.636 73.12 58.637C73.016 58.637 72.909 58.6349 72.8051 58.6209C72.5691 58.5919 72.474 58.5007 72.455 58.2527C72.436 58.0007 72.439 57.7479 72.439 57.4959V20.1927C72.439 18.7807 72.441 17.3708 72.436 15.9578C72.435 15.7958 72.505 15.5836 72.344 15.4856C72.144 15.3656 71.998 15.5657 71.854 15.6697C68.577 18.0067 65.303 20.3478 62.027 22.6878C58.941 24.8918 55.8539 27.0946 52.7679 29.2986C49.6809 31.5036 46.596 33.7098 43.51 35.9158C42.859 36.3818 42.208 36.8488 41.557 37.3138C41.489 37.3628 41.415 37.4058 41.348 37.4568C41.138 37.6128 40.928 37.63 40.71 37.469C40.592 37.381 40.465 37.3036 40.345 37.2176C34.704 33.1886 29.063 29.1577 23.422 25.1287C19.032 21.9927 14.643 18.8579 10.252 15.7239C10.132 15.6379 10.014 15.549 9.88904 15.472C9.70504 15.361 9.56803 15.4388 9.55103 15.6658C9.53803 15.8338 9.53894 16.0027 9.53894 16.1717C9.54094 29.6377 9.54302 43.1046 9.54602 56.5696C9.54602 56.9916 9.56395 57.4117 9.56995 57.8347C9.57295 57.9597 9.57606 58.0877 9.56006 58.2117C9.52606 58.4907 9.43194 58.5866 9.16394 58.6136C9.01794 58.6296 8.86905 58.6287 8.72205 58.6287C7.92105 58.6287 7.11995 58.6278 6.31995 58.6258C4.88695 58.6208 3.63902 58.1168 2.56702 57.1858C1.20802 56.0008 0.496957 54.5028 0.480957 52.6888C0.480957 52.4358 0.480957 52.183 0.480957 51.93V6.97879C0.480957 6.64179 0.481032 6.30456 0.483032 5.96756C0.493032 2.92056 2.88403 0.71981 5.16003 0.24881C5.28403 0.22381 5.40701 0.192685 5.53101 0.170685C6.11301 0.0656853 6.62306 0.149759 7.13306 0.521759C9.84106 2.49476 12.573 4.43355 15.297 6.38455C18.312 8.54455 21.3259 10.705 24.3409 12.866C27.1319 14.867 29.922 16.8708 32.713 18.8728C35.314 20.7398 37.917 22.6069 40.521 24.4739C40.996 24.8149 41 24.816 41.453 24.492C44.33 22.429 47.207 20.3645 50.083 18.3015C53.542 15.8215 57 13.3387 60.459 10.8587C63.404 8.74767 66.3509 6.63578 69.2939 4.52078C71.1929 3.15678 73.0901 1.78685 74.9821 0.413849C75.2691 0.206849 75.575 0.114881 75.926 0.120881C76.525 0.130881 77.096 0.275881 77.646 0.495881C79.725 1.32588 80.998 2.85085 81.439 5.03885C81.578 5.71585 81.578 6.42 81.578 7.116C81.577 14.597 81.577 22.0788 81.577 29.5598H81.5861V29.5589Z" fill="black"/>
</svg>
