<svg width="544" height="434" viewBox="0 0 544 434" fill="none" xmlns="http://www.w3.org/2000/svg">
<path d="M72.0197 260.953C73.2067 261.81 74.3747 262.616 75.5197 263.37C74.2967 262.834 73.1297 262.02 72.0197 260.953C37.4935 236.036 -13.0791 168.138 37.0519 75.4691C84.9687 -13.1075 184.045 20.8538 232.456 44.5875C244.188 48.4829 253.848 53.9215 260.304 60.0583C260.304 60.0583 249.532 52.9592 232.456 44.5875C189.343 30.2723 118.261 36.7979 75.4787 106.101C50.6185 146.371 52.6223 242.307 72.0197 260.953Z" fill="#CF8D5B"/>
<path d="M75.5197 263.37C41.0909 240.677 -14.803 171.325 37.0519 75.469C101.871 -44.3512 260.304 60.0582 260.304 60.0582C230.123 31.3692 129.903 17.9395 75.4787 106.101C49.1954 148.676 52.9397 253.472 75.5197 263.37Z" stroke="#CF8B5B"/>
<path d="M354.997 432.415H352.099C352.099 432.415 353.065 421.46 350.378 421.353C347.697 421.245 341.039 430.265 337.063 431.664C333.092 433.058 312.693 434.236 312.584 430.479C312.477 426.724 320.423 425.219 322.892 424.146C325.364 423.071 337.391 411.367 339.536 409.971C341.683 408.575 345.349 398.871 345.349 398.871L356.739 398.364C356.739 398.364 357.382 407.437 358.072 412.239C358.328 414.015 358.514 415.634 358.544 416.737C358.646 420.817 354.997 432.415 354.997 432.415Z" fill="#EEA886"/>
<path d="M428.363 430.248H425.947V420.054C423.935 420.224 417.167 426.624 415.072 428.479C412.98 430.33 410.108 430.248 401.289 430.809C392.472 431.369 391.638 426.091 393.035 424.294C394.431 422.496 398.941 421.709 401.289 420.588C403.636 419.465 412.898 409.02 415.372 406.548C417.839 404.077 419.343 397.002 419.343 397.002L429.652 397.9C429.652 397.9 429.587 404.374 430.759 409.805V409.807C430.765 409.821 430.767 409.836 430.77 409.848C430.872 410.311 430.98 410.764 431.101 411.208C432.631 416.854 428.363 430.248 428.363 430.248Z" fill="#EEA886"/>
<path d="M427.964 236.351C427.749 236.822 414.091 267.143 410.576 272.402C409.794 269.588 408.984 266.761 408.197 264.022V264.019C408.198 264.019 427.505 237.017 427.964 236.351Z" fill="#122536"/>
<path d="M414.455 83.5472C414.455 83.5472 418.83 95.1202 415.426 104.066C415.426 104.066 431.469 103.022 432.077 101.15C432.683 99.2772 431.43 81.9362 433.636 76.8102C435.842 71.6872 414.455 83.5472 414.455 83.5472Z" fill="#EEA886"/>
<path d="M428.436 37.1091C421.989 34.8981 404.558 32.5441 400.094 59.2981C395.626 86.0511 405.353 86.5101 415.343 85.7501C425.333 84.9911 440.964 66.9291 442.159 61.4411C443.355 55.9541 446.835 43.4211 428.436 37.1091Z" fill="#EEA886"/>
<path d="M403.686 47.385C403.686 47.385 409.01 58.775 415.991 62.7461C415.991 62.7461 420.369 74.8491 429.843 79.7421C429.843 79.7421 454.985 63.0871 440.397 43.296C425.806 23.504 405.331 39.264 403.686 47.385Z" fill="#FCCCA2"/>
<path d="M415.375 58.7969C415.939 57.4049 419.709 55.142 421.4 58.961C423.088 62.7771 417.021 69.5051 415.357 69.1431C413.696 68.7801 413.228 64.0791 415.375 58.7969Z" fill="#EEA886"/>
<path d="M439.542 46.3541C440.093 45.4971 456.741 37.791 460.205 53.896C463.669 70.0001 446.796 88.7271 443.839 96.7811C440.883 104.835 445.175 123.708 445.175 123.708C445.175 123.708 435.024 114.11 431.952 104.066C428.581 93.0341 427.448 65.2201 439.542 46.3541Z" fill="#FCCCA2"/>
<path d="M440.384 45.8059C440.384 45.8059 435.286 49.8369 434.63 56.1979C434.63 56.1979 433.676 51.2359 435.729 48.2039C437.783 45.1729 440.384 45.8059 440.384 45.8059Z" fill="#E54242"/>
<path d="M543.007 212.611L306.306 162.244L298.189 200.39L534.89 250.756L543.007 212.611Z" fill="url(#paint0_linear)"/>
<path d="M439.333 280.773C438.089 289.044 439.395 299.91 441.992 330.149C444.592 360.385 437.446 396.999 437.446 396.999C428.469 400.072 418.133 396.999 418.133 396.999C418.371 394.873 418.133 323.295 418.133 316.919C418.133 310.539 416.301 303.299 415.83 295.979C415.506 290.989 413.185 281.791 410.576 272.401C409.794 269.587 408.984 266.76 408.197 264.021V264.018C407.755 262.482 407.322 260.972 406.898 259.513C403.222 246.756 398.275 197.5 398.275 197.5C398.275 197.5 425.689 175.418 439.039 196.207C452.386 216.994 445.535 232.113 445.064 234.71C444.591 237.312 440.574 272.508 439.333 280.773Z" fill="#1D3B54"/>
<path d="M304.466 166.531L291.884 164.388L286.708 194.777L299.289 196.919L304.466 166.531Z" fill="#2D3038"/>
<path d="M390.251 199.179C390.251 199.179 386.355 208.392 386.011 210.718C385.668 213.044 376.547 235.089 373.909 249.95C372.331 258.849 367.971 286.701 367.618 290.241C367.014 296.302 364.159 309.679 363.72 315.868C363.476 319.329 346.431 372.447 342.308 400.178C342.308 400.178 352.11 401.63 359.471 399.683C359.471 399.683 374.436 371.022 382.743 330.37C387.745 305.885 392.171 292.828 396.048 282.746C399.923 272.66 421.878 244.1 424.171 240.892C426.463 237.684 440.819 219.951 427.225 200.741C413.628 181.533 390.251 199.179 390.251 199.179Z" fill="#1D3B54"/>
<path d="M412.906 100.149C412.906 100.149 403.427 103.521 399.143 104.457C394.861 105.394 385.896 109.638 386.625 125.62C387.357 141.599 390.028 155.458 391.002 162.325C391.974 169.19 391.367 186.671 389.787 195.159C389.787 195.159 412.509 200.903 439.242 195.159C439.242 195.159 434.503 180.677 434.626 176.93C434.747 173.186 450.424 142.348 451.151 137.48C451.88 132.611 455.041 111.138 447.871 106.394C440.701 101.649 434.87 102.272 431.831 100.149C428.792 98.0281 417.338 98.6281 412.906 100.149Z" fill="#285173"/>
<path d="M449.479 220.271C410.655 230.572 379.761 220.31 379.761 220.31C382.577 214.52 384.651 208.744 386.153 203.149V203.147C387.216 199.193 387.992 195.334 388.545 191.629V191.626C391.7 170.475 387.586 154.28 387.586 154.28C392.067 117.398 447.873 106.39 452.342 118.082C456.814 129.774 443.682 180.014 443.016 184.323C442.35 188.63 449.479 220.271 449.479 220.271Z" fill="#285173"/>
<path d="M386.152 203.145C387.215 199.194 387.991 195.335 388.544 191.63V191.627C388.544 191.627 391.103 186.185 391.964 183.583C392.832 180.984 399.257 149.011 399.257 149.011C399.257 149.011 406.057 179.04 386.152 203.145Z" fill="#1D3B54"/>
<path d="M357.573 205.003C357.573 205.003 352.568 209.972 350.949 210.474C349.329 210.974 346.21 208.218 334.714 207.362C333.704 207.29 331.929 208.198 332.349 209.532C332.765 210.865 337.771 214.491 339.911 215.047C342.053 215.6 352.156 219.614 357.079 217.644C362.002 215.673 365.352 209.409 365.352 209.409L357.573 205.003Z" fill="#EEA886"/>
<path d="M396.462 105.334C396.462 105.334 383.168 110.603 382.379 129.082C381.594 147.557 380.871 157.204 380.149 160.055C379.429 162.907 378.05 174.37 374.702 181.269C371.458 187.96 350.155 209.138 350.155 209.138L360.465 218.832C360.465 218.832 390.162 189.033 391.967 183.583C393.772 178.136 401.195 140.218 401.787 133.826C402.262 128.674 409.057 105.718 396.462 105.334Z" fill="#285173"/>
<g opacity="0.1">
<g opacity="0.1">
<path opacity="0.1" d="M18.5205 147.803C18.5205 219.214 76.4085 277.1 147.818 277.1C219.226 277.1 277.113 219.214 277.113 147.803C277.113 76.3951 219.226 18.5059 147.818 18.5059C76.4085 18.5059 18.5205 76.3951 18.5205 147.803Z" fill="#B8B8B8"/>
</g>
</g>
<g opacity="0.3">
<g opacity="0.3">
<path opacity="0.3" d="M230.953 56.4271C230.953 56.4271 70.6355 36.5561 38.6884 205.756H38.6843C29.4893 188.473 24.2793 168.746 24.2793 147.803C24.2793 79.5781 79.5905 24.2681 147.818 24.2681C179.835 24.2681 209.009 36.4481 230.953 56.4271Z" fill="#869AC2"/>
</g>
</g>
<path d="M147.809 0C66.1795 0 0 66.1791 0 147.803C0 229.443 66.1795 295.616 147.809 295.616C229.443 295.616 295.62 229.443 295.62 147.803C295.62 66.1791 229.443 0 147.809 0ZM147.809 271.546C79.4725 271.546 24.071 216.15 24.071 147.803C24.071 79.4701 79.4725 24.0649 147.809 24.0649C216.15 24.0649 271.551 79.4701 271.551 147.803C271.551 216.15 216.15 271.546 147.809 271.546Z" fill="#3F444F"/>
<path d="M428.363 430.248H425.947V420.054C423.935 420.224 417.167 426.624 415.072 428.479C412.98 430.33 410.108 430.248 401.289 430.809C392.472 431.369 391.638 426.091 393.035 424.294C394.431 422.496 398.941 421.709 401.289 420.588C410.725 421.093 422.237 407.828 427.761 407.856C430.698 407.873 430.67 409.499 430.759 409.806V409.808C430.765 409.822 430.767 409.837 430.77 409.849C430.872 410.312 430.98 410.765 431.101 411.209C432.631 416.854 428.363 430.248 428.363 430.248Z" fill="#172F42"/>
<path d="M354.997 432.415H352.099C352.099 432.415 353.065 421.46 350.378 421.353C347.697 421.245 341.039 430.265 337.063 431.664C333.092 433.058 312.693 434.236 312.584 430.479C312.477 426.724 320.423 425.219 322.892 424.146C331.308 424.126 344.991 414.865 349.237 412.988C353.476 411.111 358.071 412.239 358.071 412.239C358.327 414.015 358.513 415.634 358.543 416.737C358.646 420.817 354.997 432.415 354.997 432.415Z" fill="#172F42"/>
<defs>
<linearGradient id="paint0_linear" x1="538.965" y1="231.604" x2="302.264" y2="181.237" gradientUnits="userSpaceOnUse">
<stop stop-color="#FF9F55"/>
<stop offset="1" stop-color="#FFD255"/>
</linearGradient>
</defs>
</svg>
