<svg width="960" height="307" viewBox="0 0 960 307" fill="none" xmlns="http://www.w3.org/2000/svg">
<g clip-path="url(#clip0)">
<path d="M7.03467 270.379C13.9647 287.274 24.2047 302.275 30.2847 308.774L87.5847 308.395L62.7747 270.379H7.03467Z" fill="#E1D1FF"/>
<path d="M35.7946 229.015L1.30461 226.732C-2.39539 239.74 1.00462 255.508 6.87462 269.961H62.5146L35.7946 229.015Z" fill="#E1D1FF"/>
<path d="M153.845 307.997L178.845 307.827C178.845 307.827 176.845 295.418 172.595 277.785L150.495 300.651L153.845 307.997Z" fill="#E1D1FF"/>
<path d="M86.9146 160.049C70.1946 162.531 63.9145 172.12 63.3945 184.33L98.9846 186.901L86.9146 160.049Z" fill="#E1D1FF"/>
<path d="M124.745 308.146L153.385 307.947L140.355 278.961H106.805L124.745 308.146Z" fill="#E1D1FF"/>
<path d="M150.365 300.192L172.535 277.267C168.535 260.651 162.395 239.51 153.985 219.715L128.725 252.059L150.365 300.192Z" fill="#E1D1FF"/>
<path d="M94.2446 259.316L75.9646 289.797L88.1046 308.396L124.255 308.147L94.2446 259.316Z" fill="#E1D1FF"/>
<path d="M128.535 251.621L153.805 219.267C147.195 203.817 139.175 189.225 129.595 178.33L109.775 209.887L128.535 251.621Z" fill="#E1D1FF"/>
<path d="M99.1746 187.329L63.3846 184.748C62.9546 196.968 68.1146 211.72 74.1246 224.558L116.545 225.964L99.1746 187.329Z" fill="#E1D1FF"/>
<path d="M129.295 178.001C118.665 166.04 106.115 158.604 91.4746 159.561C90.0246 159.651 88.6646 159.8 87.3446 159.98L109.565 209.428L129.295 178.001Z" fill="#E1D1FF"/>
<path d="M75.7145 289.408L93.9946 258.907L75.6246 229.005C70.7293 222.368 64.9609 216.417 58.4745 211.312L48.4246 247.574L75.7145 289.408Z" fill="#E1D1FF"/>
<path d="M77.0346 230.469L106.575 278.542H140.195L116.755 226.392L74.3446 224.977C75.2246 226.864 76.1213 228.695 77.0346 230.469Z" fill="#E1D1FF"/>
<path d="M58.1146 211.063C47.3646 203.039 34.5946 198.932 20.7046 205.132L48.1146 247.125L58.1146 211.063Z" fill="#E1D1FF"/>
<path d="M20.3245 205.332C19.6245 205.651 18.9145 206 18.2145 206.329C9.04454 211.203 3.83456 218.2 1.42456 226.264L35.5045 228.516L20.3245 205.332Z" fill="#E1D1FF"/>
<path d="M75.9746 289.796L75.9046 289.906L75.5446 289.697L75.7146 289.407L48.4246 247.544V247.633L48.0246 247.524L48.1446 247.075L20.7346 205.082L20.3546 205.262L35.5346 228.526H35.9546V228.944H35.8546L62.5746 269.891H62.9646V270.31H62.8546L87.6646 308.326H88.1646L75.9746 289.796Z" fill="#6C40BF"/>
<path d="M150.445 300.7L150.145 300.411L150.365 300.192L128.725 252.049L128.645 252.148L128.315 251.899L128.535 251.62L109.775 209.886L109.715 209.976L109.355 209.756L109.565 209.427L87.3445 159.979L86.9146 160.048L99.0345 186.901H99.3845V187.32H99.2545L116.625 225.954H116.955V226.372H116.825L140.265 278.523H140.585V278.941H140.445L153.445 307.937H153.905L150.605 300.59L150.445 300.7Z" fill="#6C40BF"/>
<path d="M94.0345 258.797L94.3945 259.016L94.2145 259.315L124.215 308.156H124.705L106.775 278.971H106.395V278.552H106.515L77.0345 230.469C77.2645 230.908 77.4845 231.356 77.7045 231.785C77.0445 230.868 76.3545 229.931 75.6445 229.004L94.0145 258.907L94.0345 258.797Z" fill="#6C40BF"/>
<path d="M35.5046 228.575L1.42468 226.322L1.30469 226.731L35.7947 229.013L35.5046 228.575Z" fill="#6C40BF"/>
<path d="M35.8947 229.025L35.9247 228.606L35.5046 228.576L35.7947 229.015L35.8947 229.025Z" fill="#6C40BF"/>
<path d="M48.4246 247.594L58.4746 211.312L58.1146 211.043L48.1146 247.106L48.4246 247.594Z" fill="#6C40BF"/>
<path d="M47.9946 247.573L48.3946 247.683L48.4246 247.593L48.1146 247.125L47.9946 247.573Z" fill="#6C40BF"/>
<path d="M62.5146 269.961H6.87463L7.05463 270.379H62.7946L62.5146 269.961Z" fill="#6C40BF"/>
<path d="M62.9047 270.379V269.961H62.5247L62.7947 270.379H62.9047Z" fill="#6C40BF"/>
<path d="M93.9946 258.906L75.7146 289.407L75.9646 289.796L94.2446 259.315L93.9946 258.906Z" fill="#6C40BF"/>
<path d="M75.5447 289.697L75.9047 289.907L75.9647 289.797L75.7147 289.408L75.5447 289.697Z" fill="#6C40BF"/>
<path d="M94.4246 259.016L94.0646 258.797L93.9946 258.906L94.2446 259.315L94.4246 259.016Z" fill="#6C40BF"/>
<path d="M99.0346 186.901L63.4446 184.33C63.4446 184.47 63.4446 184.609 63.4446 184.749L99.2346 187.33L99.0346 186.901Z" fill="#6C40BF"/>
<path d="M99.3046 187.339L99.3346 186.92L98.9846 186.9L99.1746 187.329L99.3046 187.339Z" fill="#6C40BF"/>
<path d="M109.775 209.886L129.595 178.329L129.295 178L109.565 209.427L109.775 209.886Z" fill="#6C40BF"/>
<path d="M109.365 209.757L109.715 209.976L109.775 209.886L109.565 209.428L109.365 209.757Z" fill="#6C40BF"/>
<path d="M116.735 226.392L116.545 225.964L74.1246 224.559C74.1946 224.698 74.2646 224.838 74.3246 224.977L116.735 226.392Z" fill="#6C40BF"/>
<path d="M116.865 226.393L116.875 225.975L116.545 225.965L116.735 226.393H116.865Z" fill="#6C40BF"/>
<path d="M128.725 252.049L153.985 219.704L153.805 219.266L128.535 251.62L128.725 252.049Z" fill="#6C40BF"/>
<path d="M128.315 251.9L128.655 252.15L128.725 252.05L128.535 251.621L128.315 251.9Z" fill="#6C40BF"/>
<path d="M106.805 278.962H140.355L140.175 278.543H106.555L106.805 278.962Z" fill="#6C40BF"/>
<path d="M140.495 278.962V278.543H140.175L140.355 278.962H140.495Z" fill="#6C40BF"/>
<path d="M106.435 278.543V278.962H106.805L106.555 278.543H106.435Z" fill="#6C40BF"/>
<path d="M770.915 190.341L771.005 184.789L769.195 190.341H770.915Z" fill="#6C40BF"/>
<path d="M137.435 218.289L142.755 328.51L145.835 328.37C145.835 328.37 154.035 220.053 137.435 218.289Z" fill="#6C40BF"/>
<path d="M142.335 328.529L137.035 218.288H136.875C128.745 218.637 129.255 242.739 132.105 268.315C126.605 238.562 118.985 209.198 110.505 210.763L142.115 328.559L142.335 328.529Z" fill="#6C40BF"/>
<path d="M136.385 327.981H136.465C136.715 328.669 136.865 329.057 136.865 329.057L140.095 328.33L82.8246 231.545C71.0346 242.699 136.385 327.981 136.385 327.981Z" fill="#6C40BF"/>
<path d="M140.965 328.101L141.635 328.56L110.055 210.854C101.135 213.605 110.115 249.029 120.055 280.387C107.345 253.893 91.8145 226.493 83.6345 230.908C83.4668 231.006 83.3065 231.116 83.1545 231.237L140.535 328.201L140.965 328.101Z" fill="#6C40BF"/>
<path d="M82.8246 231.507L83.1447 231.238L81.5647 228.566" fill="#C5A6FF"/>
<path d="M83.1446 231.246L82.8246 231.515L140.095 328.3L140.525 328.21L83.1446 231.246Z" fill="#C5A6FF"/>
<path d="M142.095 328.54L110.485 210.744H110.355C110.265 210.744 110.175 210.814 110.085 210.843L141.665 328.55L142.095 328.54Z" fill="#C5A6FF"/>
<path d="M137.035 218.289L142.355 328.54H142.775L137.435 218.289H137.035Z" fill="#C5A6FF"/>
<path d="M122.355 141.889C94.2946 148.288 163.165 319.759 163.165 319.759H163.315C163.415 320.975 163.475 321.643 163.475 321.643L168.475 321.903L123.355 141.799C123.019 141.799 122.685 141.829 122.355 141.889V141.889Z" fill="#C5A6FF"/>
<path d="M170.415 321.952L171.275 322.949L172.205 323.168L173.825 121.555C157.995 120.857 156.495 181.878 158.315 236.7C150.145 190.41 138.115 141.619 123.765 141.669L168.905 321.832L170.415 321.952Z" fill="#C5A6FF"/>
<path d="M174.095 323.666L213.035 145.377C212.933 145.35 212.832 145.316 212.734 145.277C199.634 142.287 189.735 180.841 182.895 222.835C187.355 173.216 188.285 123.289 174.265 121.674L172.645 323.317L174.095 323.666Z" fill="#C5A6FF"/>
<path d="M213.415 145.525L174.505 323.765L178.045 324.582C178.045 324.582 239.635 154.815 213.415 145.525Z" fill="#C5A6FF"/>
<path d="M172.625 323.317L174.245 121.673C174.123 121.644 173.999 121.624 173.875 121.613V121.613L172.255 323.227L172.625 323.317Z" fill="#6C40BF"/>
<path d="M123.765 141.729C123.625 141.729 123.485 141.729 123.345 141.729L168.465 321.832H168.905L123.765 141.729Z" fill="#6C40BF"/>
<path d="M213.035 145.377L174.115 323.666L174.525 323.756L213.415 145.526L213.035 145.377Z" fill="#6C40BF"/>
<path d="M771.005 184.788L770.915 190.339H771.335L771.445 183.432L771.005 184.788Z" fill="#C5A6FF"/>
<path d="M815.675 161.873L771.445 297.431L771.335 304.339H774.275C774.275 304.339 774.345 303.801 774.485 302.824H774.595C774.595 302.824 835.455 171.442 815.675 161.873Z" fill="#6C40BF"/>
<path d="M762.435 306.154L766.935 305.356L740.115 161.275C721.805 173.087 762.435 306.154 762.435 306.154Z" fill="#6C40BF"/>
<path d="M767.935 305.176L768.675 304.379H768.745L771.025 297.401L773.595 143.184C762.595 144.699 761.285 184.469 762.785 224.14C759.035 190.091 752.685 158.643 742.025 160.537C741.493 160.642 740.98 160.826 740.505 161.085L767.345 305.296L767.935 305.176Z" fill="#6C40BF"/>
<path d="M815.285 161.713C815.135 161.654 814.995 161.584 814.835 161.534C802.935 158.175 790.735 198.254 781.955 236.35C785.715 192.294 787.045 143.094 774.245 143.104H774.015L771.465 296.036L815.285 161.713Z" fill="#6C40BF"/>
<path d="M740.115 161.275C740.245 161.195 740.375 161.146 740.505 161.076Z" fill="#C5A6FF"/>
<path d="M740.505 161.076C740.375 161.146 740.245 161.195 740.115 161.275L766.935 305.356L767.345 305.286L740.505 161.076Z" fill="#C5A6FF"/>
<path d="M771.465 296.035L774.015 143.123L773.595 143.173L771.035 297.391L771.465 296.035Z" fill="#C5A6FF"/>
<path d="M771.445 297.472L815.675 161.914C815.555 161.854 815.415 161.804 815.285 161.754L771.465 296.037L771.445 297.472Z" fill="#C5A6FF"/>
<path d="M836.955 275.912L856.615 302.973L881.185 272.224L860.865 242.959L836.955 275.912Z" fill="#E1D1FF"/>
<path d="M877.695 218.289L839.835 225.466L825.395 260.871L848.815 258.877L873.945 224.24C872.215 226.233 870.475 228.227 868.685 230.36C871.896 226.495 874.904 222.466 877.695 218.289V218.289Z" fill="#E1D1FF"/>
<path d="M926.355 215.688L911.355 191.188C903.275 195.902 894.095 203.148 883.725 213.684L902.525 245.52L926.355 215.688Z" fill="#E1D1FF"/>
<path d="M876.705 221.139L861.125 242.6L881.455 271.884L902.245 245.869L883.425 213.973C881.235 216.215 879.035 218.607 876.705 221.139Z" fill="#E1D1FF"/>
<path d="M959.685 208.063C958.475 201.085 954.885 193.37 948.545 188.586L935.675 204.693L959.685 208.063Z" fill="#E1D1FF"/>
<path d="M914.315 231.436L953.865 238.922C958.205 228.805 960.145 219.894 960.145 213.295C960.138 211.686 960.008 210.08 959.755 208.491L935.375 205.072L914.315 231.436Z" fill="#E1D1FF"/>
<path d="M948.205 188.387C940.355 182.696 928.415 181.41 911.725 191.028L926.635 215.299L948.205 188.387Z" fill="#E1D1FF"/>
<path d="M879.815 126.318C872.815 124.324 863.735 125.242 852.675 129.986C847.852 132.133 843.451 135.117 839.675 138.797L863.825 165.52L879.815 126.318Z" fill="#E1D1FF"/>
<path d="M869.035 288.141L909.125 294.989C918.63 287.464 927.299 278.946 934.985 269.581L890.465 261.318L869.035 288.141Z" fill="#E1D1FF"/>
<path d="M831.585 244.563L804.005 216.654C799.845 234.177 796.895 251.87 794.845 267.259L816.185 282.291L831.585 244.563Z" fill="#E1D1FF"/>
<path d="M794.775 267.729C791.275 294.083 790.375 313.579 790.375 313.579H803.435L816.025 282.68L794.775 267.729Z" fill="#E1D1FF"/>
<path d="M825.215 261.288L803.885 313.568H809.115L848.484 259.305L825.215 261.288Z" fill="#E1D1FF"/>
<path d="M896.105 143.353C893.385 134.901 888.105 128.82 880.225 126.408L872.225 145.965L896.105 143.353Z" fill="#E1D1FF"/>
<path d="M863.645 165.959L839.375 139.047C830.865 147.23 823.795 159.042 817.935 172.727L847.604 205.231L863.645 165.959Z" fill="#E1D1FF"/>
<path d="M847.435 205.71L817.755 173.195C812.04 187.127 807.478 201.502 804.115 216.175L831.755 244.135L847.435 205.71Z" fill="#E1D1FF"/>
<path d="M840.035 224.987L878.035 217.78C886.125 205.758 892.104 192.45 895.715 178.428L856.475 184.668L840.035 224.987Z" fill="#E1D1FF"/>
<path d="M836.695 276.27L809.635 313.568H848.155L856.345 303.311L836.695 276.27Z" fill="#E1D1FF"/>
<path d="M848.695 313.568H881.205C890.836 308.25 900.014 302.152 908.645 295.337L868.705 288.51L848.695 313.568Z" fill="#E1D1FF"/>
<path d="M856.655 184.22L895.805 177.99C898.955 164.933 899.104 152.972 896.244 143.752L872.065 146.433L856.655 184.22Z" fill="#E1D1FF"/>
<path d="M914.035 231.805L890.755 260.95L935.265 269.213C942.733 260.113 948.942 250.056 953.725 239.31L914.035 231.805Z" fill="#E1D1FF"/>
<path d="M825.085 261.298V260.88H825.435L839.875 225.475H839.765L839.685 225.066L840.065 224.996L856.505 184.678H856.395L856.325 184.269L856.695 184.209L872.105 146.422H871.985L871.935 146.004H872.285L880.285 126.447L879.875 126.328L863.875 165.53L864.095 165.779L863.785 166.059L863.695 165.969L847.695 205.281L847.925 205.53L847.615 205.809L847.525 205.719L831.845 244.144L832.065 244.373L831.765 244.673L831.675 244.573L816.275 282.3L816.495 282.449L816.255 282.798L816.115 282.699L803.525 313.598H803.975L825.305 261.318L825.085 261.298Z" fill="#6C40BF"/>
<path d="M868.585 288.49L868.655 288.081L869.005 288.141L890.435 261.318H890.315L890.385 260.899L890.734 260.969L914.015 231.824H913.895L913.965 231.406L914.315 231.475L935.375 205.111H935.255L935.315 204.692H935.675L948.545 188.585L948.205 188.336L926.635 215.298L926.795 215.557L926.435 215.776L926.354 215.647L902.525 245.479L902.675 245.739L902.315 245.948L902.245 245.828L881.455 271.844L881.615 272.073L881.275 272.312L881.185 272.182L856.615 303.012L856.785 303.232L856.435 303.481L856.345 303.351L848.155 313.608H848.695L868.695 288.55L868.585 288.49Z" fill="#6C40BF"/>
<path d="M836.525 276.03L836.865 275.781L836.955 275.91L860.865 242.958L860.695 242.718L861.045 242.479L861.125 242.599L876.705 221.139C875.795 222.135 874.875 223.133 873.945 224.219L848.815 258.856H848.905V259.275H848.445L809.075 313.538H809.595L836.655 276.239L836.525 276.03Z" fill="#6C40BF"/>
<path d="M836.695 276.271L856.345 303.313L856.615 302.974L836.955 275.912L836.695 276.271Z" fill="#6C40BF"/>
<path d="M856.435 303.441L856.785 303.202L856.615 302.973L856.345 303.311L856.435 303.441Z" fill="#6C40BF"/>
<path d="M836.865 275.791L836.525 276.03L836.695 276.269L836.955 275.911L836.865 275.791Z" fill="#6C40BF"/>
<path d="M860.865 242.958L881.185 272.223L881.455 271.884L861.125 242.6L860.865 242.958Z" fill="#6C40BF"/>
<path d="M881.275 272.353L881.615 272.114L881.455 271.885L881.185 272.224L881.275 272.353Z" fill="#6C40BF"/>
<path d="M861.045 242.48L860.695 242.719L860.865 242.959L861.125 242.6L861.045 242.48Z" fill="#6C40BF"/>
<path d="M902.245 245.869L902.525 245.52L883.724 213.684L883.425 213.993L902.245 245.869Z" fill="#6C40BF"/>
<path d="M902.315 245.988L902.675 245.779L902.525 245.52L902.245 245.868L902.315 245.988Z" fill="#6C40BF"/>
<path d="M926.635 215.298L911.724 190.938L911.354 191.147L926.354 215.647L926.635 215.298Z" fill="#6C40BF"/>
<path d="M926.435 215.816L926.795 215.597L926.635 215.338L926.354 215.687L926.435 215.816Z" fill="#6C40BF"/>
<path d="M935.375 205.072L959.755 208.491C959.755 208.352 959.755 208.202 959.685 208.063L935.685 204.693L935.375 205.072Z" fill="#6C40BF"/>
<path d="M935.315 204.645L935.255 205.063L935.375 205.073L935.675 204.694L935.315 204.645Z" fill="#6C40BF"/>
<path d="M914.035 231.804L953.725 239.32C953.725 239.19 953.825 239.061 953.885 238.921L914.335 231.436L914.035 231.804Z" fill="#6C40BF"/>
<path d="M913.965 231.367L913.895 231.786L914.015 231.806L914.315 231.437L913.965 231.367Z" fill="#6C40BF"/>
<path d="M890.435 261.318L934.955 269.581L935.245 269.212L890.734 260.949L890.435 261.318Z" fill="#6C40BF"/>
<path d="M890.315 261.299L890.435 261.319L890.735 260.95L890.385 260.881L890.315 261.299Z" fill="#6C40BF"/>
<path d="M868.705 288.51L908.645 295.337L909.095 294.988L869.005 288.141L868.705 288.51Z" fill="#6C40BF"/>
<path d="M868.585 288.491L868.705 288.511L869.005 288.142L868.655 288.082L868.585 288.491Z" fill="#6C40BF"/>
<path d="M825.215 261.289L848.484 259.306L848.815 258.857L825.395 260.851L825.215 261.289Z" fill="#6C40BF"/>
<path d="M825.045 260.881L825.085 261.3L825.215 261.29L825.395 260.852L825.045 260.881Z" fill="#6C40BF"/>
<path d="M848.945 259.266L848.915 258.848L848.815 258.858L848.485 259.306L848.945 259.266Z" fill="#6C40BF"/>
<path d="M816.185 282.291L794.845 267.26C794.845 267.409 794.845 267.569 794.775 267.728L816.025 282.68L816.185 282.291Z" fill="#6C40BF"/>
<path d="M816.165 282.78L816.405 282.44L816.185 282.291L816.025 282.69L816.165 282.78Z" fill="#6C40BF"/>
<path d="M831.755 244.135L804.115 216.176C804.115 216.335 804.045 216.495 804.005 216.654L831.585 244.563L831.755 244.135Z" fill="#6C40BF"/>
<path d="M831.675 244.653L831.975 244.364L831.755 244.135L831.585 244.563L831.675 244.653Z" fill="#6C40BF"/>
<path d="M878.354 218.149L878.715 217.65L878.025 217.78L877.695 218.268L878.354 218.149Z" fill="#6C40BF"/>
<path d="M839.835 225.446L877.695 218.269L878.025 217.781L840.025 224.988L839.835 225.446Z" fill="#6C40BF"/>
<path d="M839.645 225.058L839.724 225.467L839.835 225.447L840.025 224.988L839.645 225.058Z" fill="#6C40BF"/>
<path d="M847.605 205.272L817.935 172.768L817.755 173.196L847.435 205.71L847.605 205.272Z" fill="#6C40BF"/>
<path d="M847.525 205.8L847.835 205.521L847.604 205.271L847.435 205.71L847.525 205.8Z" fill="#6C40BF"/>
<path d="M856.465 184.669L895.705 178.429C895.705 178.279 895.775 178.13 895.805 177.99L856.655 184.22L856.465 184.669Z" fill="#6C40BF"/>
<path d="M856.285 184.281L856.355 184.689L856.465 184.669L856.655 184.221L856.285 184.281Z" fill="#6C40BF"/>
<path d="M863.825 165.522L839.675 138.799L839.375 139.088L863.645 166L863.825 165.522Z" fill="#6C40BF"/>
<path d="M863.734 166.05L864.045 165.771L863.825 165.521L863.645 165.96L863.734 166.05Z" fill="#6C40BF"/>
<path d="M838.335 227.139C838.018 226.589 837.554 226.137 836.995 225.834C829.645 221.847 815.675 246.497 804.245 270.339C813.035 242.5 821.015 211.092 813.505 207.902L786.035 309.84L838.335 227.139Z" fill="#C5A6FF"/>
<path d="M813.115 207.753L812.955 207.703C805.285 205.998 798.385 232.562 793.405 259.464C795.975 236.449 796.405 214.77 789.125 214.461H789.035L785.575 310.149L813.115 207.753Z" fill="#C5A6FF"/>
<path d="M788.595 214.492C773.655 216.097 781.045 313.51 781.045 313.51L783.685 313.629L785.095 311.397L788.595 214.492Z" fill="#C5A6FF"/>
<path d="M785.485 311.983V313.229L789.155 314.046C789.155 314.046 789.285 313.707 789.515 313.049H789.585C789.585 313.049 844.585 241.284 838.585 227.479L785.735 311.106L785.485 311.983Z" fill="#C5A6FF"/>
<path d="M786.035 309.841L813.465 207.903C813.339 207.843 813.208 207.793 813.075 207.754L785.515 310.15L788.975 214.462C788.835 214.452 788.695 214.452 788.555 214.462L785.055 311.366L786.035 309.841Z" fill="#6C40BF"/>
<path d="M786.035 309.841L785.665 311.207L838.515 227.579C838.449 227.429 838.376 227.283 838.295 227.141L786.035 309.841Z" fill="#6C40BF"/>
<path d="M150.445 300.7L150.545 300.6L150.365 300.191L150.145 300.411L150.445 300.7Z" fill="#6C40BF"/>
<path d="M794.775 267.728C794.775 267.569 794.775 267.409 794.845 267.26Z" fill="#6C40BF"/>
<path d="M839.375 139.088L839.675 138.799Z" fill="#6C40BF"/>
<path d="M872.035 146.434L896.215 143.753C896.215 143.623 896.125 143.483 896.075 143.354L872.215 145.995L872.035 146.434Z" fill="#6C40BF"/>
<path d="M871.895 146.034L871.945 146.442L872.065 146.433L872.245 145.994L871.895 146.034Z" fill="#6C40BF"/>
<path d="M761.355 15.1908C761.355 15.1908 756.295 7.16677 757.275 5.77132C758.125 4.66492 760.875 9.85811 760.875 9.85811C760.875 9.85811 759.975 4.39576 759.215 1.7444C758.455 -0.906967 761.725 -1.74414 764.455 2.84092C767.185 7.42599 766.045 15.1908 766.045 15.1908H761.355Z" fill="#FFABBA"/>
<path d="M540.605 97.6815C540.605 97.6815 534.525 95.758 533.755 104.858C533.755 110.061 535.435 109.921 535.435 109.921L541.945 104.858L540.605 97.6815Z" fill="#FFABBA"/>
<path d="M369.695 200.367L357.645 402.528H369.825L401.525 230.957L420.155 402.528H431.575L432.224 200.367H369.695Z" fill="#FF4343"/>
<path d="M401.425 113.59C398.86 113.59 396.4 112.575 394.587 110.767C392.773 108.959 391.755 106.508 391.755 103.951V87.8339H411.105V103.902C411.111 105.172 410.866 106.432 410.382 107.608C409.898 108.784 409.186 109.852 408.286 110.753C407.387 111.653 406.317 112.368 405.14 112.854C403.962 113.341 402.699 113.591 401.425 113.59V113.59Z" fill="#FF7E93"/>
<path d="M385.925 69.4729C385.925 69.4729 380.795 68.9245 380.795 74.2771C380.795 79.6296 387.395 80.168 387.395 80.168L385.925 69.4729Z" fill="#FFABBA"/>
<path d="M416.915 69.4729C416.915 69.4729 422.035 68.9245 422.035 74.2771C422.035 79.6296 415.445 80.168 415.445 80.168L416.915 69.4729Z" fill="#FFABBA"/>
<path d="M401.415 94.9297H401.425C410.123 94.9297 417.175 87.9011 417.175 79.2308V66.841C417.175 58.1708 410.123 51.1421 401.425 51.1421H401.415C392.716 51.1421 385.665 58.1708 385.665 66.841V79.2308C385.665 87.9011 392.716 94.9297 401.415 94.9297Z" fill="#FFABBA"/>
<path d="M288.065 208.242L277.675 402.529H294.035L323.495 247.723L342.405 402.529H358.785L359.854 208.242H288.065Z" fill="#5828B4"/>
<path d="M357.525 133.306C357.525 89.3693 335.525 95.778 313.525 95.778C291.525 95.778 292.405 133.306 292.405 133.306L285.985 215.897C311.295 224.449 336.325 224.639 361.075 215.897L357.525 133.306Z" fill="#E5D3FF"/>
<path d="M324.395 103.343C319.265 103.343 315.104 103.213 315.104 98.1001V82.6504H333.695V98.1001C333.695 103.213 329.535 103.343 324.395 103.343Z" fill="#FF7E93"/>
<path d="M309.255 74.3485C309.255 82.6829 316.033 89.4395 324.395 89.4395C332.756 89.4395 339.535 82.6829 339.535 74.3485V62.4473C339.535 54.1129 332.756 47.3563 324.395 47.3563C316.033 47.3563 309.255 54.1129 309.255 62.4473V74.3485Z" fill="#FFABBA"/>
<path d="M748.575 133.306C748.575 89.3693 726.575 95.778 704.575 95.778C682.575 95.778 683.465 133.306 683.465 133.306L679.155 208.242C703.088 217.777 727.018 217.777 750.945 208.242L748.575 133.306Z" fill="#C5A6FF"/>
<path d="M679.104 208.242L668.715 402.529H685.085L715.545 237.637L733.455 402.529H749.835L750.895 208.242C727.732 216.785 702.267 216.785 679.104 208.242Z" fill="#FF4343"/>
<path d="M700.555 64.9579C700.555 64.9579 695.625 64.4398 695.625 69.583C695.625 74.7262 701.965 75.2447 701.965 75.2447L700.555 64.9579Z" fill="#FFABBA"/>
<path d="M730.335 64.9579C730.335 64.9579 735.265 64.4398 735.265 69.583C735.265 74.7262 728.915 75.2447 728.915 75.2447L730.335 64.9579Z" fill="#FFABBA"/>
<path d="M715.445 103.901C710.305 103.901 706.145 103.213 706.145 98.1001V82.6504H724.745V98.1001C724.745 103.213 720.575 103.901 715.445 103.901Z" fill="#FF7E93"/>
<path d="M700.304 74.3485C700.304 82.6829 707.083 89.4395 715.444 89.4395C723.806 89.4395 730.584 82.6829 730.584 74.3485V62.4473C730.584 54.1129 723.806 47.3563 715.444 47.3563C707.083 47.3563 700.304 54.1129 700.304 62.4473V74.3485Z" fill="#FFABBA"/>
<path d="M554.605 100.732C554.605 100.732 532.805 99.3165 528.925 123.607C524.245 152.882 541.165 156.231 524.245 200.357H586.775C586.775 200.357 572.905 184.33 583.965 147.709C595.025 111.088 571.865 100.732 554.605 100.732Z" fill="#DFC6FF"/>
<path d="M555.965 110.131C550.625 110.131 546.295 109.273 546.295 103.951V87.873H565.645V103.951C565.645 109.273 561.315 110.131 555.965 110.131Z" fill="#FF7E93"/>
<path d="M555.965 94.9321C551.791 94.9189 547.793 93.2604 544.842 90.3192C541.891 87.3779 540.228 83.3928 540.215 79.2332V66.8434C540.228 62.6838 541.891 58.6982 544.842 55.7569C547.793 52.8157 551.791 51.1577 555.965 51.1445V51.1445C560.139 51.155 564.14 52.812 567.093 55.7535C570.046 58.6951 571.711 62.6821 571.724 66.8434V79.2332C571.711 83.3945 570.046 87.381 567.093 90.3226C564.14 93.2641 560.139 94.9216 555.965 94.9321Z" fill="#FFABBA"/>
<path d="M210.235 211.521L198.845 402.529H210.365L240.315 240.418L257.915 402.529H268.705L269.315 211.521H210.235Z" fill="#FFABBA"/>
<path d="M238.915 117.378C238.915 117.378 218.325 116.043 214.655 138.998C210.235 166.658 226.215 169.817 210.235 211.521H269.315C269.315 211.521 256.205 196.371 266.665 161.773C277.125 127.176 255.225 117.378 238.915 117.378Z" fill="#FF4343"/>
<path d="M240.205 129.578C237.781 129.578 235.456 128.618 233.742 126.91C232.028 125.201 231.065 122.884 231.065 120.468V105.287H249.345V120.468C249.345 122.884 248.382 125.201 246.668 126.91C244.954 128.618 242.629 129.578 240.205 129.578V129.578Z" fill="#FF7E93"/>
<path d="M225.565 87.8431C225.565 87.8431 220.725 87.3248 220.725 92.3883C220.725 97.4518 226.965 97.9503 226.965 97.9503L225.565 87.8431Z" fill="#FFABBA"/>
<path d="M254.854 87.8431C254.854 87.8431 259.695 87.3248 259.695 92.3883C259.695 97.4518 253.455 97.9503 253.455 97.9503L254.854 87.8431Z" fill="#FFABBA"/>
<path d="M240.205 111.895C236.262 111.884 232.483 110.318 229.695 107.539C226.906 104.76 225.335 100.993 225.325 97.063V85.3614C225.335 81.431 226.906 77.6644 229.695 74.8852C232.483 72.106 236.262 70.5398 240.205 70.5293V70.5293C244.15 70.5372 247.931 72.1023 250.721 74.8818C253.512 77.6613 255.084 81.4293 255.095 85.3614V97.063C255.084 100.995 253.512 104.763 250.721 107.543C247.931 110.322 244.15 111.887 240.205 111.895V111.895Z" fill="#FFABBA"/>
<path d="M599.205 199.371L586.775 402.529H599.335L632.015 230.111L651.215 402.529H662.985L663.655 199.371H599.205Z" fill="#FFABBA"/>
<path d="M630.494 96.686C630.494 96.686 608.025 95.2207 604.025 120.259C599.205 150.441 616.635 153.879 599.205 199.381H663.655C663.655 199.381 649.354 182.855 660.754 145.108C672.154 107.361 648.284 96.686 630.494 96.686Z" fill="#6C40BF"/>
<path d="M631.905 109.922C629.252 109.922 626.709 108.872 624.833 107.003C622.958 105.133 621.905 102.598 621.905 99.9543V83.3887H641.845V99.9543C641.845 102.588 640.799 105.114 638.937 106.982C637.074 108.849 634.546 109.906 631.905 109.922Z" fill="#FF7E93"/>
<path d="M615.925 64.4512C615.925 64.4512 610.645 63.8931 610.645 69.435C610.645 74.977 617.445 75.5148 617.445 75.5148L615.925 64.4512Z" fill="#FFABBA"/>
<path d="M647.875 64.4512C647.875 64.4512 653.155 63.8931 653.155 69.435C653.155 74.977 646.354 75.5148 646.354 75.5148L647.875 64.4512Z" fill="#FFABBA"/>
<path d="M631.905 90.705C627.601 90.6919 623.478 88.9824 620.436 85.9495C617.393 82.9167 615.678 78.8066 615.665 74.5175V61.7496C615.678 57.4614 617.393 53.3527 620.436 50.3214C623.479 47.2902 627.602 45.5828 631.905 45.5723V45.5723C636.206 45.5828 640.328 47.2904 643.369 50.3219C646.411 53.3535 648.124 57.4623 648.135 61.7496V74.5175C648.124 78.8057 646.411 82.9154 643.37 85.9486C640.329 88.9817 636.207 90.6919 631.905 90.705V90.705Z" fill="#FFABBA"/>
<path d="M513.655 127.993C513.655 83.1985 491.215 89.7271 468.745 89.7271C446.275 89.7271 447.205 127.993 447.205 127.993L442.815 204.414C466.504 212.737 492.336 212.737 516.025 204.414L513.655 127.993Z" fill="#A48AE9"/>
<path d="M442.815 204.414L432.225 402.528H448.915L479.975 234.386L498.235 402.528H514.935L516.025 204.414C491.825 211.471 467.415 211.312 442.815 204.414Z" fill="#E1D1FF"/>
<path d="M479.875 98.0806C474.635 98.0806 470.395 97.3131 470.395 92.1001V76.3516H489.395V92.1001C489.355 97.3131 485.105 98.0806 479.875 98.0806Z" fill="#FF7E93"/>
<path d="M479.875 83.2596C475.784 83.2465 471.864 81.6211 468.971 78.7378C466.079 75.8544 464.448 71.9474 464.435 67.8698V55.7297C464.448 51.653 466.079 47.7469 468.972 44.8652C471.865 41.9834 475.785 40.3601 479.875 40.3496V40.3496C483.964 40.3601 487.882 41.9841 490.774 44.8661C493.665 47.7482 495.294 51.6539 495.305 55.7297V67.8698C495.294 71.9465 493.665 75.8537 490.774 78.7373C487.883 81.6209 483.964 83.2465 479.875 83.2596V83.2596Z" fill="#FFABBA"/>
<path d="M388.405 103.344C388.405 103.344 375.935 107.65 353.795 125.691C331.655 143.732 315.115 145.706 315.115 145.706L315.255 159.501C315.255 159.501 356.485 154.407 385.255 125.88" fill="#6C40BF"/>
<path d="M230.505 120.487C230.505 120.487 201.245 102.147 196.625 49.209C192.525 49.209 192.055 49.209 192.055 49.209C192.055 49.209 185.725 114.685 215.235 146.651" fill="#FF4343"/>
<path d="M249.345 118.764C249.345 118.764 262.545 118.764 289.345 128.582C316.145 138.4 332.045 132.569 332.045 132.569L334.195 136.556C334.195 136.556 296.195 156.551 259.645 138.988" fill="#FF4343"/>
<path d="M439.275 252.328C413.852 257.313 387.698 257.313 362.275 252.328C362.153 228.831 365.913 205.473 373.405 183.194C376.937 173.167 377.771 162.393 375.825 151.945C374.275 143.772 372.375 135.997 374.365 123.607C378.245 99.3165 400.045 100.732 400.045 100.732C417.295 100.732 440.465 111.099 429.405 147.719C429.215 148.347 429.025 148.975 428.855 149.593C425.507 161.85 425.985 174.832 430.225 186.812C440.355 216.525 439.275 252.328 439.275 252.328Z" fill="#6C40BF"/>
<path d="M413.775 103.344C413.775 103.344 426.245 107.65 448.385 125.691C470.525 143.732 486.965 142.825 486.965 142.825V156.78C486.965 156.78 445.695 154.387 416.895 125.88" fill="#6C40BF"/>
<path d="M315.104 95.7688C315.104 95.7688 299.105 94.1141 269.425 116.89C240.725 135.559 214.854 122.96 214.854 122.96L213.104 127.167C213.104 127.167 226.354 146.444 254.224 143.364C271.451 141.287 287.993 135.392 302.635 126.11L315.104 95.7688Z" fill="#E5D3FF"/>
<path d="M564.035 101.539C564.035 101.539 576.925 104.33 601.035 119.6C625.145 134.871 643.955 133.485 643.955 133.485L643.095 139.376C643.095 139.376 601.815 148.426 569.795 123.547" fill="#DFC6FF"/>
<path d="M333.695 95.5199C333.695 95.5199 347.525 91.1441 380.695 108.478C412.185 121.934 435.484 105.836 435.484 105.836L439.265 111.378C439.265 111.378 428.265 130.197 400.265 131.941C382.936 132.856 365.622 129.89 349.595 123.26L333.695 95.5199Z" fill="#E5D3FF"/>
<path d="M539.625 104.859C539.625 104.859 528.875 112.485 512.715 136.008C496.555 159.531 479.415 163.917 479.415 163.917L482.125 172.07C482.125 172.07 523.415 162.83 542.995 127.376" fill="#DFC6FF"/>
<path d="M489.235 89.398C489.235 89.398 505.315 87.8732 532.495 113.56C559.125 135.06 585.655 124.982 585.655 124.982L587.805 133.953C587.805 133.953 572.295 147.369 544.885 141.449C527.966 137.623 512.121 130.069 498.515 119.341L489.235 89.398Z" fill="#A48AE9"/>
<path d="M468.745 89.7073C468.745 89.7073 452.075 89.3685 424.895 115.055C398.265 136.555 371.735 126.388 371.735 126.388L368.545 134.033C368.545 134.033 385.095 148.865 412.545 142.944C429.469 139.119 445.317 131.561 458.925 120.826L468.745 89.7073Z" fill="#A48AE9"/>
<path d="M701.965 96.1777C701.965 96.1777 685.885 96.3472 658.965 122.323C636.655 146.902 607.285 135.559 607.285 135.559L606.165 140.054C606.165 140.054 619.535 156.551 646.875 150.341C663.756 146.331 679.521 138.603 693.015 127.725L701.965 96.1777Z" fill="#C5A6FF"/>
<path d="M724.745 95.689C724.745 95.689 756.115 76.4916 761.325 16.8359H766.035C766.035 16.8359 786.695 54.7124 741.935 125.033" fill="#C5A6FF"/>
<path d="M641.875 97.5527C641.875 97.5527 655.035 98.5495 681.075 110.301C707.115 122.053 724.255 116.93 724.255 116.93L726.005 121.136C726.005 121.136 695.625 138.958 650.685 118.534" fill="#6C40BF"/>
<path d="M621.935 97.8822C621.935 97.8822 608.935 95.0116 580.795 100.105C560.145 103.843 546.445 99.9952 540.605 97.6827C539.708 97.3296 538.71 97.3322 537.815 97.69C536.921 98.0478 536.198 98.7338 535.795 99.6066V99.6066C535.391 100.459 535.321 101.431 535.599 102.333C535.876 103.234 536.481 104 537.295 104.48C546.475 109.843 575.915 124.625 608.295 115.445" fill="#6C40BF"/>
<path d="M240.205 66.6035C240.205 66.6035 225.815 66.6038 220.725 80.8973C215.635 95.1907 202.135 106.514 212.225 113.591C222.315 120.668 214.825 134.792 235.665 137.712C256.505 140.633 259.665 126.997 259.665 114.986C259.665 102.975 269.025 106.244 265.275 91.2133C261.525 76.1823 249.475 66.6035 240.205 66.6035Z" fill="#341239"/>
<path d="M323.955 45.6617C323.955 45.6617 309.955 45.3128 306.345 61.7991C302.735 78.2854 314.115 92.8878 324.345 92.8878C334.575 92.8878 344.085 81.7042 342.345 62.5466C340.605 43.389 323.955 45.6617 323.955 45.6617Z" fill="#FF4343"/>
<path d="M562.034 46.9969C571.494 36.9098 549.034 34.0391 547.264 41.6842C547.094 42.4517 548.375 47.3857 549.555 46.9969C549.555 46.9969 533.875 52.1004 536.555 71.4972C537.475 78.315 539.404 86.4484 545.374 91.3724C550.734 95.808 559.814 96.1272 565.644 92.1502C572.434 87.4953 574.144 78.5144 575.104 71.4972C577.674 52.1004 562.034 46.9969 562.034 46.9969Z" fill="#341239"/>
<path d="M653.645 62.3764C648.135 37.5572 612.745 38.8032 608.645 63.8914C608.041 67.6789 607.75 71.509 607.775 75.3439V131.351C624.385 135.647 640.195 135.588 655.255 131.351V75.9221C655.19 71.3634 654.65 66.8239 653.645 62.3764V62.3764Z" fill="#FF4343"/>
<path d="M728.355 44.8532C724.025 36.4306 706.445 36.3808 702.095 44.8532C698.475 51.8903 689.925 53.565 691.555 64.6987C693.185 75.8325 699.395 76.1809 702.095 83.5071C706.095 94.3717 724.365 94.3717 728.355 83.5071C731.055 76.1809 737.265 75.8225 738.885 64.6987C740.505 53.575 731.965 51.8803 728.355 44.8532Z" fill="#5828B4"/>
<path d="M196.624 49.2109C196.624 49.2109 198.174 39.8511 196.724 38.9441C195.504 38.2563 194.994 44.1074 194.994 44.1074C194.994 44.1074 193.694 38.7251 193.374 35.984C193.054 33.2429 189.695 33.7413 188.965 38.9742C188.235 44.2072 192.055 49.1808 192.055 49.1808L196.624 49.2109Z" fill="#FFABBA"/>
<path d="M214.855 122.96C214.855 122.96 206.855 117.906 205.405 118.883C204.285 119.74 209.505 122.472 209.505 122.472C209.505 122.472 204.015 121.584 201.365 120.817C198.715 120.049 197.865 123.329 202.465 126.05C207.065 128.771 213.105 127.166 213.105 127.166L214.855 122.96Z" fill="#FFABBA"/>
<path d="M315.115 145.706C315.115 145.706 305.705 144.33 304.815 145.785C304.145 147.021 310.025 147.42 310.025 147.42C310.025 147.42 304.645 148.815 301.905 149.184C299.165 149.553 299.725 152.882 305.035 153.52C308.543 153.81 312.066 153.181 315.255 151.696L315.115 145.706Z" fill="#FFABBA"/>
<path d="M332.095 132.569C332.095 132.569 339.625 126.778 341.095 127.585C342.285 128.333 337.355 131.572 337.355 131.572C337.355 131.572 342.735 130.166 345.355 129.15C347.975 128.133 349.075 131.313 344.765 134.453C340.455 137.593 334.275 136.585 334.275 136.585L332.095 132.569Z" fill="#FFABBA"/>
<path d="M371.735 126.409C371.735 126.409 363.675 121.366 362.275 122.342C361.165 123.19 366.385 125.93 366.385 125.93C366.385 125.93 360.895 125.034 358.235 124.276C355.575 123.518 354.745 126.778 359.335 129.499C363.925 132.22 370.035 130.575 370.035 130.575L371.735 126.409Z" fill="#FFABBA"/>
<path d="M479.415 163.896C479.415 163.896 470.015 165.331 469.595 166.986C469.315 168.362 475.055 166.986 475.055 166.986C475.055 166.986 470.325 169.887 467.815 171.043C465.305 172.199 466.815 175.22 472.075 174.283C477.335 173.346 480.855 168.182 480.855 168.182L479.415 163.896Z" fill="#FFABBA"/>
<path d="M486.965 142.824C486.965 142.824 495.715 139.106 496.965 140.292C497.965 141.289 492.345 143.193 492.345 143.193C492.345 143.193 497.895 143.193 500.645 142.844C503.395 142.495 503.695 145.834 498.724 147.828C493.754 149.821 486.984 148.565 486.984 148.565L486.965 142.824Z" fill="#FFABBA"/>
<path d="M585.655 124.983C585.655 124.983 594.415 121.274 595.655 122.461C596.655 123.457 591.025 125.361 591.025 125.361C591.025 125.361 596.585 125.361 599.335 125.012C602.085 124.663 602.335 128.003 597.415 129.996C592.495 131.99 586.724 129.418 586.724 129.418L585.655 124.983Z" fill="#FFABBA"/>
<path d="M605.734 135.041C605.734 135.041 596.974 131.333 595.734 132.519C594.734 133.516 600.354 135.41 600.354 135.41C600.354 135.41 594.795 135.41 592.055 135.061C589.315 134.712 588.995 138.051 593.965 140.045C598.935 142.038 604.655 139.466 604.655 139.466L605.734 135.041Z" fill="#FFABBA"/>
<path d="M724.255 116.929C724.255 116.929 732.315 111.885 733.715 112.862C734.825 113.719 729.605 116.45 729.605 116.45C729.605 116.45 735.095 115.563 737.755 114.796C740.415 114.028 741.245 117.307 736.655 120.028C732.065 122.75 726.005 121.135 726.005 121.135L724.255 116.929Z" fill="#FFABBA"/>
<path d="M217.495 180.242C217.495 180.242 195.595 228.375 195.595 286.506C211.175 293.703 268.065 291.29 277.675 286.506C277.675 286.506 279.675 208.45 262.925 180.242C262.925 180.242 245.415 185.714 217.495 180.242Z" fill="#341239"/>
<path d="M582.125 190.969C564.785 196.69 537.855 195.225 527.545 190.969C527.545 190.969 519.115 202.93 520.545 229.673C521.156 243.523 520.993 257.396 520.055 271.227L512.235 402.53H524.415L556.115 230.959L574.745 402.53H586.165L586.765 270.39C586.747 257.022 587.532 243.665 589.115 230.391C591.585 210.396 588.225 199.92 582.125 190.969Z" fill="#341239"/>
<path d="M658.935 151.845C640.755 155.383 623.075 155.503 605.935 151.695C605.935 151.695 593.465 194.945 593.465 250.823C612.305 257.232 659.115 253.883 669.645 250.823C669.655 250.823 668.715 178.418 658.935 151.845Z" fill="#341239"/>
<path d="M313.485 95.7777L315.105 95.0302C315.105 95.0302 315.105 102.775 324.395 102.775C333.685 102.775 333.705 94.7012 333.705 94.7012L335.125 95.2395C335.125 95.2395 336.725 105.486 324.395 105.486C312.065 105.486 313.485 95.7777 313.485 95.7777Z" fill="#C5A6FF"/>
<path d="M470.395 87.8744C470.395 87.8744 470.955 96.6057 479.875 96.6057C488.795 96.6057 489.355 87.5254 489.355 87.5254L492.195 89.5189C492.195 89.5189 492.325 99.9449 479.875 99.9449C467.425 99.9449 467.415 89.7778 467.415 89.7778L470.395 87.8744Z" fill="#6C40BF"/>
<path d="M376.765 166.559L376.405 170.426C376.405 170.426 398.035 177.722 426.835 170.426L426.655 166.559C398.235 172.719 376.765 166.559 376.765 166.559Z" fill="#341239"/>
<path d="M450.365 127.266C450.365 127.266 464.074 114.388 451.365 95.4492" stroke="#341239" stroke-width="0.42" stroke-miterlimit="10"/>
<path d="M512.915 129.02C512.915 129.02 493.425 120.678 509.725 96.1777" stroke="#341239" stroke-width="0.42" stroke-miterlimit="10"/>
<path d="M294.225 225.107L317.575 229.553C317.575 229.553 319.205 247.724 304.485 247.724C289.765 247.724 294.225 225.107 294.225 225.107Z" stroke="#341239" stroke-width="0.42" stroke-miterlimit="10"/>
<path d="M352.765 225.107L329.405 229.553C329.405 229.553 327.785 247.724 342.495 247.724C357.205 247.724 352.765 225.107 352.765 225.107Z" stroke="#341239" stroke-width="0.42" stroke-miterlimit="10"/>
<path d="M683.945 203.088C683.945 203.088 717.945 212.976 745.945 203.088" stroke="#341239" stroke-width="0.42" stroke-miterlimit="10"/>
<path d="M550.415 47.1562C550.415 47.1562 554.935 50.5552 561.065 47.1562" stroke="#FF6C99" stroke-width="0.87" stroke-miterlimit="10"/>
<path d="M528.195 188.824C528.195 188.824 556.315 196.23 581.495 188.824L582.125 190.967C582.125 190.967 573.675 195.353 555.125 195.353C536.575 195.353 527.515 190.967 527.515 190.967L528.195 188.824Z" fill="#6C40BF"/>
<path d="M539.354 195.175V190.908L541.465 191.188V195.663L539.354 195.175Z" fill="#341239"/>
<path d="M570.185 195.354V191.217L568.275 191.466V195.354H570.185Z" fill="#341239"/>
<path d="M273.295 287.903L272.825 288.003C272.825 216.396 259.305 181.47 259.165 181.131L259.595 181.041C259.735 181.41 273.295 216.206 273.295 287.903Z" fill="#6C40BF"/>
<path d="M295.505 102.357C295.505 102.357 301.105 113.581 295.505 128.672" stroke="#C5A6FF" stroke-width="0.42" stroke-miterlimit="10"/>
<path d="M353.395 123.199C353.395 123.199 347.395 112.962 353.395 98.9082" stroke="#C5A6FF" stroke-width="0.42" stroke-miterlimit="10"/>
<path d="M448.525 205.898L436.065 402.528" stroke="#C5A6FF" stroke-width="0.42" stroke-miterlimit="10"/>
<path d="M509.265 206.199L512.195 388.744" stroke="#C5A6FF" stroke-width="0.42" stroke-miterlimit="10"/>
<path d="M484.165 163.896L486.965 170.684" stroke="#C5A6FF" stroke-width="0.42" stroke-miterlimit="10"/>
<path d="M410.175 49.3397C407.407 48.4313 404.482 48.0926 401.579 48.3444C398.676 48.5963 395.854 49.4337 393.285 50.8052C390.128 52.3855 387.32 54.5778 385.025 57.2539V57.194C382.459 60.186 380.154 63.3909 378.135 66.7732C376.045 70.7602 363.445 82.1327 365.285 92.9973C365.643 89.9183 366.805 86.987 368.655 84.4952C367.455 87.3758 367.425 90.5756 369.655 94.9314C374.545 87.715 387.415 97.9217 408.585 97.9217C427.685 97.9416 433.215 57.4433 410.175 49.3397Z" fill="#341239"/>
<path d="M498.525 51.1437C498.525 45.4622 493.964 42.1728 489.354 40.3488C482.854 37.7373 475.415 37.747 469.435 41.3951C467.518 42.4981 465.863 44.0025 464.586 45.8041C463.308 47.6058 462.438 49.6621 462.035 51.8314V51.8314V52.0207C461.831 53.1291 461.724 54.2531 461.715 55.3799C461.715 58.4299 461.795 61.3603 461.915 64.0017L461.715 83.2291L462.805 79.4314V83.2291H496.805C496.805 83.2291 496.945 81.8435 497.345 75.6936L498.484 83.2291L498.525 51.1437Z" fill="#5828B4"/>
<path d="M691.735 99.0081C692.855 96.8973 694.626 95.2007 696.786 94.1689C698.947 93.137 701.382 92.8245 703.735 93.2767C712.165 94.7918 713.435 98.4002 718.485 96.1775C723.535 93.9547 726.145 90.6953 730.485 90.6953C730.485 103.474 728.825 113.271 717.175 115.384C705.525 117.498 703.495 97.7522 691.735 99.0081Z" fill="#A48AE9"/>
<path d="M604.675 139.477L605.734 135.041L607.305 135.559L606.185 140.054L604.675 139.477Z" fill="#A48AE9"/>
<path d="M766.055 15.1914H761.325V16.8058H766.055V15.1914Z" fill="#A48AE9"/>
</g>
<defs>
<clipPath id="clip0">
<rect width="960" height="307" fill="white"/>
</clipPath>
</defs>
</svg>
